# xmcd CD database file
#
# Track frame offsets:
#	187
#	19027
#	44372
#
# Disc length: 839 seconds
#
# Revision: 0
# Processed by: cddbd v1.5.2PL0 Copyright (c) Steve Scherf et al.
# Submitted via: CD2WAV32(JP) R3.22
#
DISCID=1b034503
DTITLE=小谷美紗子 - 嘆きの雪
DYEAR=1996
DGENRE=JPop
TTITLE0=嘆きの雪
TTITLE1=STAY
TTITLE2=嘆きの雪 (TV Mix)
EXTD=
EXTT0=
EXTT1=
EXTT2=
PLAYORDER=
